<?xml version="1.0" encoding="UTF-8" standalone="no"?>
<svg height="100" width="100" viewBox="0 0 100 100" xmlns="http://www.w3.org/2000/svg" version="1.1">
  <g id="lpub-logo">
    <path d="M 0,0 V 100 H 100 V 0 Z" fill="#fffdd8" />
    <path d="m 37.560024,12.008308 c -7.594323,-0.126742 -8.535096,1.217531 -12.643938,2.608543 1.595777,4.901929 2.599255,4.660805 4.374424,11.594009 1.570579,6.134452 1.31416,18.918673 0.805191,26.208448 -0.227642,3.267439 -1.034121,12.760822 -1.919199,16.001642 -0.674045,2.468267 -3.120538,9.243149 -4.085793,11.544832 -0.965396,2.30168 -2.956464,4.449381 -3.590709,6.926898 8.643332,-1.838067 21.865104,-2.699026 31.682432,-2.684875 9.817327,0.01428 16.220187,0.950628 24.900742,2.792195 1.334061,-3.26996 2.611139,-5.079305 3.248532,-9.719094 0.637395,-4.639648 -0.696235,-6.557436 -1.329478,-9.987539 -1.200912,0.984393 -5.233303,4.531345 -9.751611,5.910841 -5.251486,1.603246 -6.915982,1.812426 -14.036986,1.566679 -7.121144,-0.245609 -11.937392,-0.433633 -13.188128,-3.637043 -1.628274,-4.170289 -0.03264,-14.789013 0.473035,-21.633808 0.505678,-6.844797 0.733749,-16.517516 2.720092,-23.899344 1.737085,-6.455157 5.033436,-10.023965 5.281408,-10.59028 -4.846314,-1.945514 -5.095715,-2.871188 -12.940014,-3.002104 z" fill="#21ab89" />
  </g>
</svg>
