<?xml version="1.0" encoding="UTF-8" standalone="no"?>
<svg height="100" width="100" viewBox="0 0 100 100" xmlns="http://www.w3.org/2000/svg" version="1.1">
  <title>Libertas Publica (Lpub) logotype</title>
  <desc>Lpub logo by Timur Ulyahin, 2024. Under CC BY 4.0 license. github.com/ucomru/lpub</desc>
  <g id="lpub-logo">
    <!-- <path id="background" d="M 0,0 V 100 H 100 V 0 Z" fill="#fffdd8" /> -->
    <path id="letter-l" d="m 76.691799,84.007789 c -0.91446,2.36243 -2.34333,4.22957 -4.28674,5.60126 -1.94327,1.3717 -4.22943,2.05762 -6.85861,2.05762 -2.62919,0 -6.55394,-1.60038 -11.77411,-4.80115 -5.22031,-3.20062 -9.39271,-5.25823 -12.517194,-6.172838 -2.057613,2.743528 -4.381981,5.029838 -6.972957,6.858758 -2.591123,1.82893 -4.381981,2.74353 -5.372722,2.74353 -0.762052,0 -2.286302,-1.65755 -4.572457,-4.97266 -2.286302,-3.31496 -3.429307,-5.6965 -3.429307,-7.144472 0,-0.838183 1.200177,-2.095679 3.600824,-3.772193 2.400499,-1.676661 4.93445,-2.819812 7.601704,-3.429453 1.905203,-4.648589 3.886538,-11.526455 5.944151,-20.633304 2.057613,-9.106849 3.657995,-18.499412 4.801146,-28.177837 0,-1.219283 -0.400058,-2.686361 -1.200323,-4.400941 -0.800118,-1.714726 -1.619342,-3.105526 -2.457672,-4.172428 l -1.143151,-1.600367 0.343033,-1.714683 c 4.572458,-1.295532 12.078925,-1.943298 22.519405,-1.943298 0.99074,1.676573 1.48603,4.229542 1.48603,7.658878 0,3.429306 -0.99074,8.535273 -2.97207,15.317754 -1.98148,6.782481 -4.70591,14.917695 -8.17328,24.405644 -3.46752,9.487801 -5.46796,15.108172 -6.00147,16.860964 0.30482,0.07628 1.25749,0.342887 2.85788,0.800265 1.60038,0.457231 2.64814,0.742945 3.14359,0.857289 0.49529,0.114345 1.46693,0.342887 2.9149,0.68592 1.44797,0.342887 2.59112,0.571429 3.42931,0.685774 0.83833,0.114344 1.94327,0.247648 3.31511,0.400058 2.36243,0.3811 4.59156,0.571576 6.68724,0.571576 2.09568,0 3.60082,-0.533363 4.51528,-1.600382 l 3.20077,-5.944151 3.77219,0.914462 c 0,4.953557 -0.80012,9.640359 -2.4005,14.060405 z" fill="#2563eb" />
    <path id="accent-line" d="m 68.474719,31.555997 c -1.08686,-1.47e-4 -2.05158,0.413433 -2.84759,1.19415 -0.79585,0.780717 -1.19415,1.684157 -1.19415,2.755732 0,1.071576 0.37184,1.788801 0.59715,2.112728 0.24927,0.358319 0.52822,0.618901 0.87258,0.688859 -0.1946,0.207819 -1.54674,1.151823 -2.3423,1.515726 -0.67652,0.274545 -2.29512,0.845826 -4.86846,1.699295 -2.57349,0.853762 -5.89315,1.661964 -11.84965,2.98545 -5.987066,1.398442 -10.527189,2.641975 -14.054232,3.812022 -3.572163,1.185038 -6.318342,2.986332 -8.267196,5.465609 -1.949147,2.479423 -2.630364,5.813345 -2.618019,7.761904 -0.0037,0.355233 0.02616,0.703851 0.09186,1.010435 0.0269,0.125515 0.05379,0.25 0.09186,0.367431 0.145062,0.448854 0.38301,0.818196 0.689006,1.148296 0.58157,0.627425 1.393298,0.964432 2.480159,0.964432 1.086861,1.47e-4 2.051587,-0.413433 2.84759,-1.19415 0.795855,-0.780718 1.19415,-1.684157 1.19415,-2.755732 0,-1.071576 -0.37184,-1.788801 -0.597149,-2.112728 -0.249265,-0.358466 -0.528218,-0.618901 -0.872574,-0.68886 0.194444,-0.207965 1.546737,-1.151969 2.342298,-1.515726 0.676367,-0.274544 2.294974,-0.845826 4.86846,-1.699294 2.573486,-0.853763 5.847296,-1.707819 11.803787,-3.031305 5.98692,-1.398442 10.57305,-2.59612 14.10009,-3.766167 3.57217,-1.185185 6.3182,-2.986332 8.2672,-5.465609 1.949,-2.479424 2.63022,-5.813492 2.61802,-7.761905 0.004,-0.355379 -0.0262,-0.703997 -0.0919,-1.010435 -0.0269,-0.125514 -0.0539,-0.250147 -0.0919,-0.367431 -0.14506,-0.448853 -0.38301,-0.818195 -0.68901,-1.148295 -0.58172,-0.627425 -1.3933,-0.964432 -2.48016,-0.964432 z" fill="#ff2f4f" />
  </g>
</svg>
